<mxfile host="app.diagrams.net" modified="2024-04-24T06:09:58.757Z" agent="Mozilla/5.0 (Windows NT 10.0; Win64; x64) AppleWebKit/537.36 (KHTML, like Gecko) Chrome/124.0.0.0 Safari/537.36" etag="zQD899-1pvh47JnJkFQH" version="24.2.8" type="github">
  <diagram name="Page-1" id="RJ0OyywHCPiTlX7hDfI7">
    <mxGraphModel dx="1050" dy="557" grid="1" gridSize="10" guides="1" tooltips="1" connect="1" arrows="1" fold="1" page="1" pageScale="1" pageWidth="827" pageHeight="1169" math="0" shadow="0">
      <root>
        <mxCell id="0" />
        <mxCell id="1" parent="0" />
        <mxCell id="dT6RQ6lJ1hllBTWCgssA-1" value="" style="points=[[0.35,0,0],[0.98,0.51,0],[1,0.71,0],[0.67,1,0],[0,0.795,0],[0,0.65,0]];verticalLabelPosition=bottom;sketch=0;html=1;verticalAlign=top;aspect=fixed;align=center;pointerEvents=1;shape=mxgraph.cisco19.user;fillColor=#d80073;strokeColor=#A50040;hachureGap=4;jiggle=2;curveFitting=1;fontFamily=Architects Daughter;fontSource=https%3A%2F%2Ffonts.googleapis.com%2Fcss%3Ffamily%3DArchitects%2BDaughter;fontColor=#ffffff;" vertex="1" parent="1">
          <mxGeometry x="45" y="240" width="50" height="50" as="geometry" />
        </mxCell>
        <mxCell id="dT6RQ6lJ1hllBTWCgssA-2" value="" style="sketch=0;pointerEvents=1;shadow=0;dashed=0;html=1;strokeColor=#6c8ebf;fillColor=#dae8fc;labelPosition=center;verticalLabelPosition=bottom;verticalAlign=top;outlineConnect=0;align=center;shape=mxgraph.office.users.mobile_user;hachureGap=4;jiggle=2;curveFitting=1;fontFamily=Architects Daughter;fontSource=https%3A%2F%2Ffonts.googleapis.com%2Fcss%3Ffamily%3DArchitects%2BDaughter;fillStyle=solid;gradientColor=#7ea6e0;" vertex="1" parent="1">
          <mxGeometry x="40" y="120" width="49" height="40" as="geometry" />
        </mxCell>
        <mxCell id="dT6RQ6lJ1hllBTWCgssA-3" value="&lt;font face=&quot;Verdana&quot;&gt;API Gateway&lt;/font&gt;" style="rounded=1;whiteSpace=wrap;html=1;hachureGap=4;fontFamily=Architects Daughter;fontSource=https%3A%2F%2Ffonts.googleapis.com%2Fcss%3Ffamily%3DArchitects%2BDaughter;" vertex="1" parent="1">
          <mxGeometry x="177" y="80" width="60" height="250" as="geometry" />
        </mxCell>
        <mxCell id="dT6RQ6lJ1hllBTWCgssA-5" value="" style="endArrow=classic;startArrow=classic;html=1;rounded=0;hachureGap=4;fontFamily=Architects Daughter;fontSource=https%3A%2F%2Ffonts.googleapis.com%2Fcss%3Ffamily%3DArchitects%2BDaughter;flowAnimation=1;entryX=-0.02;entryY=0.193;entryDx=0;entryDy=0;entryPerimeter=0;" edge="1" parent="1">
          <mxGeometry width="50" height="50" relative="1" as="geometry">
            <mxPoint x="99" y="270.5" as="sourcePoint" />
            <mxPoint x="178" y="269.5" as="targetPoint" />
          </mxGeometry>
        </mxCell>
        <mxCell id="dT6RQ6lJ1hllBTWCgssA-6" value="" style="endArrow=classic;startArrow=classic;html=1;rounded=0;hachureGap=4;fontFamily=Architects Daughter;fontSource=https%3A%2F%2Ffonts.googleapis.com%2Fcss%3Ffamily%3DArchitects%2BDaughter;flowAnimation=1;entryX=-0.02;entryY=0.193;entryDx=0;entryDy=0;entryPerimeter=0;" edge="1" parent="1">
          <mxGeometry width="50" height="50" relative="1" as="geometry">
            <mxPoint x="98" y="148.5" as="sourcePoint" />
            <mxPoint x="177" y="147.5" as="targetPoint" />
          </mxGeometry>
        </mxCell>
        <mxCell id="dT6RQ6lJ1hllBTWCgssA-7" value="&lt;font face=&quot;Verdana&quot;&gt;CDN&lt;/font&gt;" style="rounded=1;whiteSpace=wrap;html=1;hachureGap=4;fontFamily=Architects Daughter;fontSource=https%3A%2F%2Ffonts.googleapis.com%2Fcss%3Ffamily%3DArchitects%2BDaughter;" vertex="1" parent="1">
          <mxGeometry x="318" y="80" width="96" height="40" as="geometry" />
        </mxCell>
        <mxCell id="dT6RQ6lJ1hllBTWCgssA-8" value="" style="endArrow=classic;startArrow=classic;html=1;rounded=0;hachureGap=4;fontFamily=Architects Daughter;fontSource=https%3A%2F%2Ffonts.googleapis.com%2Fcss%3Ffamily%3DArchitects%2BDaughter;fontSize=12;fontColor=default;entryX=0;entryY=0.5;entryDx=0;entryDy=0;flowAnimation=1;" edge="1" parent="1" target="dT6RQ6lJ1hllBTWCgssA-7">
          <mxGeometry width="50" height="50" relative="1" as="geometry">
            <mxPoint x="240" y="100" as="sourcePoint" />
            <mxPoint x="290" y="90" as="targetPoint" />
          </mxGeometry>
        </mxCell>
        <mxCell id="dT6RQ6lJ1hllBTWCgssA-9" value="&lt;font face=&quot;Verdana&quot;&gt;Static Contents&lt;/font&gt;" style="rounded=1;whiteSpace=wrap;html=1;hachureGap=4;strokeColor=default;align=center;verticalAlign=middle;fontFamily=Architects Daughter;fontSource=https%3A%2F%2Ffonts.googleapis.com%2Fcss%3Ffamily%3DArchitects%2BDaughter;fontSize=12;fontColor=default;labelBackgroundColor=default;fillColor=default;" vertex="1" parent="1">
          <mxGeometry x="485" y="80" width="120" height="40" as="geometry" />
        </mxCell>
        <mxCell id="dT6RQ6lJ1hllBTWCgssA-10" value="" style="endArrow=classic;startArrow=classic;html=1;rounded=0;hachureGap=4;strokeColor=default;align=center;verticalAlign=middle;fontFamily=Architects Daughter;fontSource=https%3A%2F%2Ffonts.googleapis.com%2Fcss%3Ffamily%3DArchitects%2BDaughter;fontSize=12;fontColor=default;labelBackgroundColor=default;flowAnimation=1;" edge="1" parent="1">
          <mxGeometry width="50" height="50" relative="1" as="geometry">
            <mxPoint x="414" y="99.5" as="sourcePoint" />
            <mxPoint x="484" y="99.5" as="targetPoint" />
          </mxGeometry>
        </mxCell>
      </root>
    </mxGraphModel>
  </diagram>
</mxfile>
